<svg width="24" height="25" viewBox="0 0 24 25" fill="none" xmlns="http://www.w3.org/2000/svg">
  <path fill-rule="evenodd" clip-rule="evenodd" d="M1.65039 11.5999C1.65039 10.3274 2.84089 9.1499 4.50039 9.1499H5.40039C5.46921 9.1499 5.51588 9.17465 5.53851 9.19477C5.54482 9.20038 5.54843 9.2046 5.55039 9.20732V17.1925C5.54843 17.1952 5.54482 17.1994 5.53851 17.205C5.51588 17.2252 5.46921 17.2499 5.40039 17.2499H4.50039C2.84089 17.2499 1.65039 16.0724 1.65039 14.7999V11.5999ZM5.55244 9.21094C5.55236 9.21095 5.552 9.21035 5.5516 9.20914C5.55232 9.21032 5.55252 9.21093 5.55244 9.21094ZM5.55237 17.1892C5.55245 17.189 5.55247 17.1889 5.55244 17.1889C5.55236 17.1889 5.552 17.1894 5.5516 17.1907C5.55201 17.19 5.55225 17.1895 5.55237 17.1892ZM4.50039 7.6499C2.18344 7.6499 0.150391 9.33777 0.150391 11.5999V14.7999C0.150391 17.062 2.18344 18.7499 4.50039 18.7499H5.40039C6.22617 18.7499 7.05039 18.1365 7.05039 17.1999V9.1999C7.05039 8.26326 6.22617 7.6499 5.40039 7.6499H4.50039ZM18.4483 9.21094C18.4483 9.21093 18.4485 9.21032 18.4492 9.20914C18.4488 9.21035 18.4484 9.21095 18.4483 9.21094ZM18.4623 9.19477C18.456 9.20038 18.4524 9.2046 18.4504 9.20732V17.1925C18.4524 17.1952 18.456 17.1994 18.4623 17.205C18.4849 17.2252 18.5316 17.2499 18.6004 17.2499H19.5004C21.1599 17.2499 22.3504 16.0724 22.3504 14.7999V11.5999C22.3504 10.3274 21.1599 9.1499 19.5004 9.1499H18.6004C18.5316 9.1499 18.4849 9.17465 18.4623 9.19477ZM18.4483 17.1889C18.4484 17.1889 18.4488 17.1894 18.4492 17.1907C18.4485 17.1895 18.4483 17.1889 18.4483 17.1889ZM18.6004 7.6499C17.7746 7.6499 16.9504 8.26326 16.9504 9.1999V17.1999C16.9504 18.1365 17.7746 18.7499 18.6004 18.7499H19.5004C21.8173 18.7499 23.8504 17.062 23.8504 14.7999V11.5999C23.8504 9.33777 21.8173 7.6499 19.5004 7.6499H18.6004Z" fill="black" fill-opacity="0.1"/>
  <path fill-rule="evenodd" clip-rule="evenodd" d="M17.9397 2.4603C16.3644 0.884997 14.2278 0 12 0C7.6392 0 4.05453 3.32298 3.64001 7.57493C1.58013 7.93845 0 9.5834 0 11.6V14.8C0 17.0895 2.03679 18.9 4.5 18.9H5.4C6.37205 18.9 7.2 18.164 7.2 17.2V9.2C7.2 8.2561 6.40627 7.53085 5.46072 7.50096C5.89926 4.28118 8.65987 1.8 12 1.8C13.7504 1.8 15.4292 2.49536 16.6669 3.7331C17.6908 4.75697 18.3435 6.08262 18.5385 7.50098C17.5933 7.53124 16.8 8.25635 16.8 9.2V17.2C16.8 18.164 17.628 18.9 18.6 18.9L18.6 19.238L18.5921 19.3904C18.5135 20.1427 17.86 20.7351 17.0583 20.7351H15.7643C15.3993 19.8411 14.5401 19.2369 13.5486 19.2369H12.0504C10.7259 19.2369 9.65221 20.3106 9.65221 21.6351L9.66109 21.8336C9.78836 23.0983 10.817 24.0333 12.0504 24.0333H13.5486C14.5548 24.0333 15.4163 23.4136 15.7722 22.5351H17.0583L17.2615 22.5291C19.0093 22.4255 20.4 20.9951 20.4 19.238V18.8178C22.4403 18.4402 24 16.8035 24 14.8V11.6C24 9.58321 22.4196 7.93813 20.3594 7.57482C20.1695 5.64998 19.3193 3.8399 17.9397 2.4603ZM19.5 9.3H18.6V17.1H19.5C21.0132 17.1 22.2 16.0451 22.2 14.8V11.6C22.2 10.3549 21.0132 9.3 19.5 9.3ZM4.5 9.3C3.05256 9.3 1.90381 10.2652 1.80666 11.4387L1.8 11.6V14.8C1.8 16.0451 2.98676 17.1 4.5 17.1H5.4V9.3H4.5ZM13.5486 21.0369H12.0504C11.72 21.0369 11.4522 21.3047 11.4511 21.5897L11.4553 21.6973C11.486 21.9997 11.743 22.2333 12.0504 22.2333H13.5486C13.879 22.2333 14.1468 21.9654 14.1479 21.6805L14.1436 21.5728C14.1129 21.2704 13.856 21.0369 13.5486 21.0369Z" fill="#353535"/>
</svg>
